<svg xmlns="http://www.w3.org/2000/svg" width="250" height="37" viewBox="0 0 250 37">
    <g fill="none" fill-rule="evenodd">
        <path fill="#1A1919" d="M242.165 23.813l4.688-15.845H250l-7.168 22.344c-.684 2.113-2.144 4.566-3.443 5.515-1.086.786-2.356 1.173-3.886 1.173-.656 0-1.708-.2-2.15-.308v-2.465c.347.08 1.186.219 1.579.219.823 0 1.89-.082 2.87-.755 1.112-.749 2.336-3.15 2.767-5.11v-.164l-7.183-20.449h3.15l5.51 15.845.061.337.058-.337zm-10.948-4.944H217.19c.005 2.205.547 4.076 1.573 5.41 1.062 1.381 2.587 2.107 4.416 2.107 3.2 0 4.604-2.101 5.23-3.494l2.585 1.24c-.947 2.285-3.206 4.807-7.815 4.807-1.774 0-4.345-.413-6.353-2.373-1.9-1.855-2.935-4.646-2.935-8.304 0-3.287.805-5.997 2.266-7.825.733-.93 1.713-1.643 2.773-2.122 1.083-.487 2.329-.737 3.699-.737 2.635 0 4.635.634 6.053 1.939 1.663 1.535 2.535 4.024 2.535 7.404v1.948zm-3.132-2.552c-.013-4.22-1.702-6.187-5.38-6.187-3.422 0-5.15 1.967-5.428 6.187h10.808zM43.942 10.678c1.487 1.904 2.307 4.591 2.307 7.563 0 2.97-.82 5.66-2.307 7.56-1.594 2.045-3.868 3.119-6.58 3.119-2.71 0-4.985-1.074-6.586-3.119-1.483-1.9-2.3-4.59-2.3-7.56 0-2.972.817-5.66 2.3-7.563 1.6-2.035 3.875-3.115 6.586-3.115 2.712 0 4.986 1.08 6.58 3.115zm-6.58 15.692c3.451 0 5.507-3.041 5.507-8.129 0-5.09-2.056-8.127-5.507-8.127-3.455 0-5.518 3.036-5.518 8.127 0 5.088 2.063 8.13 5.518 8.13zm16.069-9.422v11.647h-3.216V8.021h3.216v3.727l-.03.26.028-.037c1.67-2.99 3.578-4.268 6.839-4.268v3.012c-3.83 0-6.045 1.997-6.837 6.233zm78.696-9.611c-.039 2.93 3.25 4.06 6.731 5.25 2.136.734 4.353 1.494 6.056 2.713 1.94 1.39 2.882 3.178 2.882 5.46 0 1.587-.354 3.864-2.06 5.642-1.648 1.71-4.156 2.579-7.462 2.579-2.792 0-5.025-.783-6.818-2.39-1.634-1.463-2.755-3.646-3.416-5.15l3.059-.825c1.403 3.703 3.895 5.632 7.33 5.632 1.956 0 3.473-.477 4.504-1.41.934-.862 1.43-2.082 1.43-3.543 0-3.274-3.412-4.483-7.019-5.767-2.077-.734-4.218-1.496-5.85-2.684-1.845-1.351-2.745-3.078-2.745-5.27 0-1.995.836-3.828 2.343-5.163 1.56-1.372 3.748-2.125 6.169-2.125 4.891 0 8.112 2.734 9.424 7.221l-2.996.37c-.35-1.398-1.121-2.617-2.173-3.453-1.147-.92-2.642-1.404-4.334-1.404-1.609 0-2.861.378-3.735 1.133-.86.742-1.31 1.818-1.32 3.184zm20.757 3.168h-3.088V7.954h3.088V1.22h3.217v6.733h3.455v2.55H156.1v14.06c0 .94.22 1.806 2.377 1.806.36 0 .726-.011 1.078-.034v2.267s-1.213.317-2.13.317c-1.448 0-2.542-.229-3.278-.723-.682-.463-1.264-1.213-1.264-2.48V10.506zm55.435 14.06c0 .94.297 1.805 2.452 1.805.36 0 .717-.011 1.086-.034v2.267s-1.225.317-2.14.317c-1.45 0-2.546-.229-3.278-.723-.683-.463-1.339-1.213-1.339-2.48V0h3.222l-.003 24.564zM107.07 13.323v15.279h-3.213V8.024h3.214v2.755c1.804-2.048 3.937-3.148 6.032-3.148 3 0 6.17 1.582 6.17 6.04v14.932h-3.22V13.748c0-2.469-.989-3.565-3.223-3.565-2.236 0-4.665 1.968-5.76 3.141zm-11.794 12.73c-1.08 1.657-3.307 3.049-6.685 2.944-1.59-.043-3.047-.55-4.1-1.553-1.135-1.083-2.002-2.603-2.002-4.384 0-2.508 1.278-4.33 3.308-5.64 1.872-1.207 4.419-1.856 8.249-2.28.698-.074.965-.17 1.068-.299.063-.082.055-.297.055-.297v-.736c0-2.402-1.383-3.62-4.117-3.62-3.473 0-4.741 2.242-5.102 3.217l-2.594-1.36c.914-1.696 3.092-4.407 7.654-4.407 1.905 0 3.658.491 4.927 1.399 1.538 1.083 2.356 2.744 2.356 4.798l.01 1.311v9.941c0 .887.473 1.22 1.188 1.253v2.185c-.593.141-1.982.254-2.824-.202-.9-.474-1.304-1.133-1.39-2.27zm-.018-3.441v-5.21c-.375.217-1.108.352-1.494.387-5.603.618-8.148 2.032-7.896 5.37.152 2 1.64 3.202 3.155 3.289 2.74.152 6.086-2.036 6.235-3.836zm80.222 3.44c-1.081 1.658-3.312 3.05-6.69 2.945-1.586-.043-3.044-.55-4.1-1.553-1.136-1.083-2-2.603-2-4.384 0-2.508 1.276-4.33 3.308-5.64 1.871-1.207 4.418-1.856 8.248-2.28.693-.074.964-.17 1.065-.299.066-.082.058-.297.058-.297l-.002-.736c0-2.402-1.382-3.62-4.12-3.62-3.464 0-4.734 2.242-5.097 3.217l-2.596-1.36c.922-1.696 3.1-4.407 7.66-4.407 1.903 0 3.651.491 4.925 1.399 1.54 1.083 2.351 2.744 2.351 4.798l.015 1.311v9.941c0 .887.473 1.22 1.185 1.253v2.185c-.592.141-1.98.254-2.826-.202-.892-.474-1.304-1.133-1.384-2.27zm-.021-3.44v-5.21c-.374.217-1.108.352-1.498.387-5.598.618-8.143 2.032-7.894 5.37.154 2 1.642 3.202 3.153 3.289 2.746.152 6.091-2.036 6.239-3.836zm-163.3.483l.017.114.02-.114L18.999.672h5.355v27.923h-3.216V3.055l-.07.097-7.643 25.443h-2.497L3.287 3.152l-.071-.097v25.54H0V.672h5.346l6.811 22.424zm175.11-9.772v15.279h-3.215V8.024h3.216v2.755c1.802-2.048 3.939-3.148 6.03-3.148 3.006 0 6.172 1.582 6.172 6.04v14.932h-3.216V13.748c0-2.469-1-3.565-3.225-3.565-2.233 0-4.668 1.968-5.761 3.141zM76.107 8.002h2.409v21.277c0 4.553-2.714 7.707-8.416 7.707-2.094 0-4.532-.418-6.028-1.062v-2.786c1.778.835 3.961 1.305 6.425 1.305 2.534 0 4.888-1.68 4.888-4.421v-3.91l-.16.078c-1.26 1.615-3.1 2.725-5.125 2.725-3.465 0-8.595-2.681-8.595-10.653 0-8.204 5.13-10.647 8.754-10.647 2.441 0 3.983 1.02 5.165 2.56l.683-2.173zm-.722 14.61V12.82c-1.501-1.866-3.074-2.66-4.888-2.66-3.543 0-5.622 2.738-5.622 7.948 0 6.19 2.314 8.257 5.622 8.257 1.693 0 4.054-1.383 4.888-3.752z"/>
    </g>
</svg>
